<?xml version='1.0' encoding='UTF-8'?>
<svg xmlns="http://www.w3.org/2000/svg" version="1.1">
<!--
Rot z: 0.0, rot y: 90.0 of: Rot z: 90.0, rot y: 0.0 of: Rot z: 0.0, rot y: 90.0 of: View of network
[ 0, 0, 255, 140 ]
-->
    <rect x="0.0" y="0.0" width="255.0" height="140.0" style="fill:none;stroke:black;stroke-width:1;"/>
    <circle cx="220.57499504089355" cy="97.28256559371948" r="5.0" stroke-width="0" fill="red"/>
    <circle cx="180.8332405090332" cy="105.0" r="5.0" stroke-width="0" fill="red"/>
    <circle cx="132.31543731689453" cy="99.1904511451721" r="5.0" stroke-width="0" fill="red"/>
    <circle cx="74.203857421875" cy="91.61256361007689" r="5.0" stroke-width="0" fill="red"/>
    <circle cx="20.0" cy="98.37989091873168" r="5.0" stroke-width="0" fill="red"/>
    <circle cx="219.53684043884277" cy="96.87818384170532" r="5.0" stroke-width="0" fill="red"/>
    <circle cx="158.42443084716797" cy="97.65477895736693" r="5.0" stroke-width="0" fill="red"/>
    <circle cx="133.60043334960938" cy="94.98427057266234" r="5.0" stroke-width="0" fill="red"/>
    <circle cx="74.69793701171875" cy="96.29328680038451" r="5.0" stroke-width="0" fill="red"/>
    <circle cx="24.6910400390625" cy="103.03852796554564" r="5.0" stroke-width="0" fill="red"/>
    <line x1="235.57499504089355" y1="120.0" x2="135.57499504089355" y2="120.0" style="stroke:green;stroke-width:3.0"/>
    <circle cx="235.57499504089355" cy="120.0" r="1.5" stroke-width="0" fill="yellow"/>
    <line x1="235.57499504089355" y1="120.0" x2="235.57499504089355" y2="20.0" style="stroke:red;stroke-width:3.0"/>
<!--
Rot z: 0.0, rot y: 90.0 of: View of network
[ 0, 140, 140, 140 ]
-->
    <rect x="0.0" y="140.0" width="140.0" height="140.0" style="fill:none;stroke:black;stroke-width:1;"/>
    <circle cx="42.71743440628052" cy="242.52088356018066" r="5.0" stroke-width="0" fill="red"/>
    <circle cx="35.0" cy="197.90826606750488" r="5.0" stroke-width="0" fill="red"/>
    <circle cx="40.80954885482789" cy="221.58302116394043" r="5.0" stroke-width="0" fill="red"/>
    <circle cx="48.38743638992311" cy="237.89484977722168" r="5.0" stroke-width="0" fill="red"/>
    <circle cx="41.620109081268325" cy="245.0" r="5.0" stroke-width="0" fill="red"/>
    <circle cx="43.12181615829468" cy="225.6173267364502" r="5.0" stroke-width="0" fill="red"/>
    <circle cx="42.345221042633064" cy="208.41485786437988" r="5.0" stroke-width="0" fill="red"/>
    <circle cx="45.015729427337654" cy="218.41297721862793" r="5.0" stroke-width="0" fill="red"/>
    <circle cx="43.70671319961549" cy="227.4875202178955" r="5.0" stroke-width="0" fill="red"/>
    <circle cx="36.96147203445436" cy="218.57393074035645" r="5.0" stroke-width="0" fill="red"/>
    <line x1="20.0" y1="260.0" x2="20.000000000000007" y2="260.0" style="stroke:green;stroke-width:3.0"/>
    <line x1="20.0" y1="260.0" x2="20.0" y2="160.0" style="stroke:yellow;stroke-width:3.0"/>
    <line x1="20.0" y1="260.0" x2="120.0" y2="260.0" style="stroke:red;stroke-width:3.0"/>
<!--
Rot z: 0.0, rot y: 0.0 of: View of network
[ 255, 0, 255, 140 ]
-->
    <rect x="255.0" y="0.0" width="255.0" height="140.0" style="fill:none;stroke:black;stroke-width:1;"/>
    <circle cx="290.0" cy="102.52088356018066" r="5.0" stroke-width="0" fill="red"/>
    <circle cx="329.74175453186035" cy="57.90826606750488" r="5.0" stroke-width="0" fill="red"/>
    <circle cx="378.259557723999" cy="81.58302116394043" r="5.0" stroke-width="0" fill="red"/>
    <circle cx="436.37113761901855" cy="97.89484977722168" r="5.0" stroke-width="0" fill="red"/>
    <circle cx="490.57499504089355" cy="105.0" r="5.0" stroke-width="0" fill="red"/>
    <circle cx="291.0381546020508" cy="85.6173267364502" r="5.0" stroke-width="0" fill="red"/>
    <circle cx="352.1505641937256" cy="68.41485786437988" r="5.0" stroke-width="0" fill="red"/>
    <circle cx="376.9745616912842" cy="78.41297721862793" r="5.0" stroke-width="0" fill="red"/>
    <circle cx="435.8770580291748" cy="87.48752021789551" r="5.0" stroke-width="0" fill="red"/>
    <circle cx="485.88395500183105" cy="78.57393074035645" r="5.0" stroke-width="0" fill="red"/>
    <line x1="275.0" y1="120.0" x2="375.0" y2="120.0" style="stroke:green;stroke-width:3.0"/>
    <line x1="275.0" y1="120.0" x2="275.0" y2="20.0" style="stroke:yellow;stroke-width:3.0"/>
    <circle cx="275.0" cy="120.0" r="1.5" stroke-width="0" fill="red"/>
<!--
Rot z: -10.0, rot y: -20.0 of: View of network
[ 255, 140, 252, 132 ]
-->
    <rect x="255.0" y="140.0" width="252.0" height="132.0" style="fill:none;stroke:black;stroke-width:1;"/>
    <circle cx="284.49685013951034" cy="209.72713124235085" r="5.0" stroke-width="0" fill="red"/>
    <circle cx="331.1937511685646" cy="172.6933629051397" r="5.0" stroke-width="0" fill="red"/>
    <circle cx="370.24279812354564" cy="204.43347338349236" r="5.0" stroke-width="0" fill="red"/>
    <circle cx="418.76672987769183" cy="230.5884586177745" r="5.0" stroke-width="0" fill="red"/>
    <circle cx="470.08305104349483" cy="246.9980667073097" r="5.0" stroke-width="0" fill="red"/>
    <circle cx="288.077522201074" cy="193.26065108364133" r="5.0" stroke-width="0" fill="red"/>
    <circle cx="347.7045988883572" cy="186.93158492590467" r="5.0" stroke-width="0" fill="red"/>
    <circle cx="368.1323178186462" cy="201.08845230936905" r="5.0" stroke-width="0" fill="red"/>
    <circle cx="421.60862753427244" cy="220.25344375919815" r="5.0" stroke-width="0" fill="red"/>
    <circle cx="471.64733046186194" cy="220.15887826462935" r="5.0" stroke-width="0" fill="red"/>
    <line x1="282.9989743461014" y1="216.22438220963133" x2="477.86856575308906" y2="252.7903463607054" style="stroke:green;stroke-width:1.0"/>
    <line x1="292.31497005061374" y1="160.0" x2="487.1845614576013" y2="196.56596415107404" style="stroke:green;stroke-width:1.0"/>
    <line x1="284.31599570451226" y1="160.0" x2="479.1855871114999" y2="196.56596415107404" style="stroke:green;stroke-width:1.0"/>
    <line x1="275.0" y1="216.22438220963133" x2="469.8695914069876" y2="252.7903463607054" style="stroke:green;stroke-width:1.0"/>
    <line x1="282.9989743461014" y1="216.22438220963133" x2="292.31497005061374" y2="160.0" style="stroke:yellow;stroke-width:1.0"/>
    <line x1="477.86856575308906" y1="252.7903463607054" x2="487.1845614576013" y2="196.56596415107404" style="stroke:yellow;stroke-width:1.0"/>
    <line x1="275.0" y1="216.22438220963133" x2="284.31599570451226" y2="160.0" style="stroke:yellow;stroke-width:1.0"/>
    <line x1="469.8695914069876" y1="252.7903463607054" x2="479.1855871114999" y2="196.56596415107404" style="stroke:yellow;stroke-width:1.0"/>
    <line x1="282.9989743461014" y1="216.22438220963133" x2="275.0" y2="216.22438220963133" style="stroke:red;stroke-width:1.0"/>
    <line x1="477.86856575308906" y1="252.7903463607054" x2="469.8695914069876" y2="252.7903463607054" style="stroke:red;stroke-width:1.0"/>
    <line x1="292.31497005061374" y1="160.0" x2="284.31599570451226" y2="160.0" style="stroke:red;stroke-width:1.0"/>
    <line x1="487.1845614576013" y1="196.56596415107404" x2="479.1855871114999" y2="196.56596415107404" style="stroke:red;stroke-width:1.0"/>
</svg>
