<?xml version='1.0' encoding='UTF-8'?>
<svg xmlns="http://www.w3.org/2000/svg" version="1.1">
<!--
Rot z: -10.0, rot y: -20.0 of: View of network
[ 0, 0, 298, 155 ]
-->
    <rect x="0.0" y="0.0" width="298.0" height="155.0" style="fill:none;stroke:black;stroke-width:1;"/>
    <line x1="61.46089265273177" y1="81.31169054914224" x2="57.01463078949808" y2="81.31169054914224" style="stroke:red;stroke-width:30.0"/>
    <line x1="57.01463078949808" y1="81.31169054914224" x2="40.59766390986598" y2="81.31169054914224" style="stroke:grey;stroke-width:4.0"/>
    <line x1="108.15779368178602" y1="44.2779222119311" x2="103.71153181855232" y2="44.2779222119311" style="stroke:red;stroke-width:30.0"/>
    <line x1="103.71153181855232" y1="44.2779222119311" x2="87.29456493892022" y2="44.2779222119311" style="stroke:grey;stroke-width:4.0"/>
    <line x1="147.20684063676708" y1="76.01803269028376" x2="142.76057877353338" y2="76.01803269028376" style="stroke:red;stroke-width:30.0"/>
    <line x1="142.76057877353338" y1="76.01803269028376" x2="126.34361189390128" y2="76.01803269028376" style="stroke:grey;stroke-width:4.0"/>
    <line x1="195.73077239091327" y1="102.17301792456588" x2="191.2845105276796" y2="102.17301792456588" style="stroke:red;stroke-width:30.0"/>
    <line x1="191.2845105276796" y1="102.17301792456588" x2="174.8675436480475" y2="102.17301792456588" style="stroke:grey;stroke-width:4.0"/>
    <line x1="247.04709355671625" y1="118.5826260141011" x2="242.60083169348258" y2="118.5826260141011" style="stroke:red;stroke-width:30.0"/>
    <line x1="242.60083169348258" y1="118.5826260141011" x2="226.18386481385048" y2="118.5826260141011" style="stroke:grey;stroke-width:4.0"/>
    <line x1="64.01550428431841" y1="64.84521039043271" x2="60.59530285106174" y2="64.84521039043271" style="stroke:red;stroke-width:24.0"/>
    <line x1="60.59530285106174" y1="64.84521039043271" x2="41.442174824824285" y2="64.84521039043271" style="stroke:grey;stroke-width:2.0"/>
    <line x1="123.64258097160163" y1="58.51614423269607" x2="120.22237953834494" y2="58.51614423269607" style="stroke:red;stroke-width:24.0"/>
    <line x1="120.22237953834494" y1="58.51614423269607" x2="101.06925151210748" y2="58.51614423269607" style="stroke:grey;stroke-width:2.0"/>
    <line x1="144.0702999018906" y1="72.67301161616044" x2="140.6500984686339" y2="72.67301161616044" style="stroke:red;stroke-width:24.0"/>
    <line x1="140.6500984686339" y1="72.67301161616044" x2="121.49697044239645" y2="72.67301161616044" style="stroke:grey;stroke-width:2.0"/>
    <line x1="197.54660961751685" y1="91.83800306598955" x2="194.12640818426019" y2="91.83800306598955" style="stroke:red;stroke-width:24.0"/>
    <line x1="194.12640818426019" y1="91.83800306598955" x2="174.97328015802273" y2="91.83800306598955" style="stroke:grey;stroke-width:2.0"/>
    <line x1="247.58531254510638" y1="91.74343757142074" x2="244.16511111184968" y2="91.74343757142074" style="stroke:red;stroke-width:24.0"/>
    <line x1="244.16511111184968" y1="91.74343757142074" x2="225.01198308561223" y2="91.74343757142074" style="stroke:grey;stroke-width:2.0"/>
    <line x1="52.49729339693098" y1="95.92053726987551" x2="265.8752163718851" y2="135.95946497428818" style="stroke:green;stroke-width:1.0"/>
    <line x1="65.07680732477394" y1="20.0" x2="278.45473029972806" y2="60.038927704412664" style="stroke:green;stroke-width:1.0"/>
    <line x1="32.57951392784296" y1="20.0" x2="245.95743690279707" y2="60.038927704412664" style="stroke:green;stroke-width:1.0"/>
    <line x1="20.0" y1="95.92053726987551" x2="233.37792297495412" y2="135.95946497428818" style="stroke:green;stroke-width:1.0"/>
    <line x1="52.49729339693098" y1="95.92053726987551" x2="65.07680732477394" y2="20.0" style="stroke:yellow;stroke-width:1.0"/>
    <line x1="265.8752163718851" y1="135.95946497428818" x2="278.45473029972806" y2="60.038927704412664" style="stroke:yellow;stroke-width:1.0"/>
    <line x1="20.0" y1="95.92053726987551" x2="32.57951392784296" y2="20.0" style="stroke:yellow;stroke-width:1.0"/>
    <line x1="233.37792297495412" y1="135.95946497428818" x2="245.95743690279707" y2="60.038927704412664" style="stroke:yellow;stroke-width:1.0"/>
    <line x1="52.49729339693098" y1="95.92053726987551" x2="20.0" y2="95.92053726987551" style="stroke:red;stroke-width:1.0"/>
    <line x1="265.8752163718851" y1="135.95946497428818" x2="233.37792297495412" y2="135.95946497428818" style="stroke:red;stroke-width:1.0"/>
    <line x1="65.07680732477394" y1="20.0" x2="32.57951392784296" y2="20.0" style="stroke:red;stroke-width:1.0"/>
    <line x1="278.45473029972806" y1="60.038927704412664" x2="245.95743690279707" y2="60.038927704412664" style="stroke:red;stroke-width:1.0"/>
<!--
Rot z: 0.0, rot y: 90.0 of: Rot z: 90.0, rot y: 0.0 of: Rot z: 0.0, rot y: 90.0 of: View of network
[ 0, 155, 265, 144 ]
-->
    <rect x="0.0" y="155.0" width="265.0" height="144.0" style="fill:none;stroke:black;stroke-width:1;"/>
    <line x1="220.57499504089355" y1="246.29829502105713" x2="220.57499504089355" y2="233.29829502105713" style="stroke:red;stroke-width:30.0"/>
    <line x1="220.57499504089355" y1="233.29829502105713" x2="220.57499504089355" y2="185.29829502105713" style="stroke:grey;stroke-width:4.0"/>
    <line x1="180.8332405090332" y1="254.01572942733765" x2="180.8332405090332" y2="241.01572942733765" style="stroke:red;stroke-width:30.0"/>
    <line x1="180.8332405090332" y1="241.01572942733765" x2="180.8332405090332" y2="193.01572942733765" style="stroke:grey;stroke-width:4.0"/>
    <line x1="132.31543731689453" y1="248.20618057250977" x2="132.31543731689453" y2="235.20618057250977" style="stroke:red;stroke-width:30.0"/>
    <line x1="132.31543731689453" y1="235.20618057250977" x2="132.31543731689453" y2="187.20618057250977" style="stroke:grey;stroke-width:4.0"/>
    <line x1="74.203857421875" y1="240.62829303741455" x2="74.203857421875" y2="227.62829303741455" style="stroke:red;stroke-width:30.0"/>
    <line x1="74.203857421875" y1="227.62829303741455" x2="74.203857421875" y2="179.62829303741455" style="stroke:grey;stroke-width:4.0"/>
    <line x1="20.0" y1="247.3956203460693" x2="20.0" y2="234.3956203460693" style="stroke:red;stroke-width:30.0"/>
    <line x1="20.0" y1="234.3956203460693" x2="20.0" y2="186.39562034606934" style="stroke:grey;stroke-width:4.0"/>
    <line x1="219.53684043884277" y1="242.89391326904297" x2="219.53684043884277" y2="232.89391326904297" style="stroke:red;stroke-width:24.0"/>
    <line x1="219.53684043884277" y1="232.89391326904297" x2="219.53684043884277" y2="176.89391326904297" style="stroke:grey;stroke-width:2.0"/>
    <line x1="158.42443084716797" y1="243.6705083847046" x2="158.42443084716797" y2="233.6705083847046" style="stroke:red;stroke-width:24.0"/>
    <line x1="158.42443084716797" y1="233.6705083847046" x2="158.42443084716797" y2="177.6705083847046" style="stroke:grey;stroke-width:2.0"/>
    <line x1="133.60043334960938" y1="241.0" x2="133.60043334960938" y2="231.0" style="stroke:red;stroke-width:24.0"/>
    <line x1="133.60043334960938" y1="231.0" x2="133.60043334960938" y2="175.0" style="stroke:grey;stroke-width:2.0"/>
    <line x1="74.69793701171875" y1="242.30901622772217" x2="74.69793701171875" y2="232.30901622772217" style="stroke:red;stroke-width:24.0"/>
    <line x1="74.69793701171875" y1="232.30901622772217" x2="74.69793701171875" y2="176.30901622772217" style="stroke:grey;stroke-width:2.0"/>
    <line x1="24.6910400390625" y1="249.05425739288327" x2="24.6910400390625" y2="239.05425739288327" style="stroke:red;stroke-width:24.0"/>
    <line x1="24.6910400390625" y1="239.05425739288327" x2="24.6910400390625" y2="183.0542573928833" style="stroke:grey;stroke-width:2.0"/>
    <line x1="245.57499504089355" y1="279.01572942733765" x2="145.57499504089355" y2="279.01572942733765" style="stroke:green;stroke-width:3.0"/>
    <circle cx="245.57499504089355" cy="279.01572942733765" r="1.5" stroke-width="0" fill="yellow"/>
    <line x1="245.57499504089355" y1="279.01572942733765" x2="245.57499504089355" y2="179.01572942733765" style="stroke:red;stroke-width:3.0"/>
<!--
Rot z: 0.0, rot y: 90.0 of: View of network
[ 298, 0, 144, 140 ]
-->
    <rect x="298.0" y="0.0" width="144.0" height="140.0" style="fill:none;stroke:black;stroke-width:1;"/>
    <line x1="350.7174344062805" y1="92.52088356018066" x2="363.7174344062805" y2="92.52088356018066" style="stroke:red;stroke-width:30.0"/>
    <line x1="363.7174344062805" y1="92.52088356018066" x2="411.7174344062805" y2="92.52088356018066" style="stroke:grey;stroke-width:4.0"/>
    <line x1="343.0" y1="47.90826606750488" x2="356.0" y2="47.90826606750488" style="stroke:red;stroke-width:30.0"/>
    <line x1="356.0" y1="47.90826606750488" x2="404.0" y2="47.90826606750488" style="stroke:grey;stroke-width:4.0"/>
    <line x1="348.8095488548279" y1="71.58302116394043" x2="361.8095488548279" y2="71.58302116394043" style="stroke:red;stroke-width:30.0"/>
    <line x1="361.8095488548279" y1="71.58302116394043" x2="409.8095488548279" y2="71.58302116394043" style="stroke:grey;stroke-width:4.0"/>
    <line x1="356.3874363899231" y1="87.89484977722168" x2="369.3874363899231" y2="87.89484977722168" style="stroke:red;stroke-width:30.0"/>
    <line x1="369.3874363899231" y1="87.89484977722168" x2="417.3874363899231" y2="87.89484977722168" style="stroke:grey;stroke-width:4.0"/>
    <line x1="349.6201090812683" y1="95.0" x2="362.6201090812683" y2="95.0" style="stroke:red;stroke-width:30.0"/>
    <line x1="362.6201090812683" y1="95.0" x2="410.6201090812683" y2="95.0" style="stroke:grey;stroke-width:4.0"/>
    <line x1="354.1218161582947" y1="75.6173267364502" x2="364.1218161582947" y2="75.6173267364502" style="stroke:red;stroke-width:24.0"/>
    <line x1="364.1218161582947" y1="75.6173267364502" x2="420.1218161582947" y2="75.6173267364502" style="stroke:grey;stroke-width:2.0"/>
    <line x1="353.34522104263306" y1="58.41485786437988" x2="363.34522104263306" y2="58.41485786437988" style="stroke:red;stroke-width:24.0"/>
    <line x1="363.34522104263306" y1="58.41485786437988" x2="419.34522104263306" y2="58.41485786437988" style="stroke:grey;stroke-width:2.0"/>
    <line x1="356.01572942733765" y1="68.41297721862793" x2="366.01572942733765" y2="68.41297721862793" style="stroke:red;stroke-width:24.0"/>
    <line x1="366.01572942733765" y1="68.41297721862793" x2="422.01572942733765" y2="68.41297721862793" style="stroke:grey;stroke-width:2.0"/>
    <line x1="354.7067131996155" y1="77.48752021789551" x2="364.7067131996155" y2="77.48752021789551" style="stroke:red;stroke-width:24.0"/>
    <line x1="364.7067131996155" y1="77.48752021789551" x2="420.7067131996155" y2="77.48752021789551" style="stroke:grey;stroke-width:2.0"/>
    <line x1="347.96147203445435" y1="68.57393074035645" x2="357.96147203445435" y2="68.57393074035645" style="stroke:red;stroke-width:24.0"/>
    <line x1="357.96147203445435" y1="68.57393074035645" x2="413.96147203445435" y2="68.57393074035645" style="stroke:grey;stroke-width:2.0"/>
    <circle cx="318.0" cy="120.0" r="1.5" stroke-width="0" fill="green"/>
    <line x1="318.0" y1="120.0" x2="318.0" y2="20.0" style="stroke:yellow;stroke-width:3.0"/>
    <line x1="318.0" y1="120.0" x2="418.0" y2="120.0" style="stroke:red;stroke-width:3.0"/>
<!--
Rot z: 0.0, rot y: 0.0 of: View of network
[ 442, 0, 265, 140 ]
-->
    <rect x="442.0" y="0.0" width="265.0" height="140.0" style="fill:none;stroke:black;stroke-width:1;"/>
    <circle cx="487.0" cy="92.52088356018066" r="15.0" stroke-width="0" fill="red"/>
    <circle cx="487.0" cy="92.52088356018066" r="2.0" stroke-width="0" fill="grey"/>
    <circle cx="526.7417545318604" cy="47.90826606750488" r="15.0" stroke-width="0" fill="red"/>
    <circle cx="526.7417545318604" cy="47.90826606750488" r="2.0" stroke-width="0" fill="grey"/>
    <circle cx="575.259557723999" cy="71.58302116394043" r="15.0" stroke-width="0" fill="red"/>
    <circle cx="575.259557723999" cy="71.58302116394043" r="2.0" stroke-width="0" fill="grey"/>
    <circle cx="633.3711376190186" cy="87.89484977722168" r="15.0" stroke-width="0" fill="red"/>
    <circle cx="633.3711376190186" cy="87.89484977722168" r="2.0" stroke-width="0" fill="grey"/>
    <circle cx="687.5749950408936" cy="95.0" r="15.0" stroke-width="0" fill="red"/>
    <circle cx="687.5749950408936" cy="95.0" r="2.0" stroke-width="0" fill="grey"/>
    <circle cx="488.0381546020508" cy="75.6173267364502" r="12.0" stroke-width="0" fill="red"/>
    <circle cx="488.0381546020508" cy="75.6173267364502" r="1.0" stroke-width="0" fill="grey"/>
    <circle cx="549.1505641937256" cy="58.41485786437988" r="12.0" stroke-width="0" fill="red"/>
    <circle cx="549.1505641937256" cy="58.41485786437988" r="1.0" stroke-width="0" fill="grey"/>
    <circle cx="573.9745616912842" cy="68.41297721862793" r="12.0" stroke-width="0" fill="red"/>
    <circle cx="573.9745616912842" cy="68.41297721862793" r="1.0" stroke-width="0" fill="grey"/>
    <circle cx="632.8770580291748" cy="77.48752021789551" r="12.0" stroke-width="0" fill="red"/>
    <circle cx="632.8770580291748" cy="77.48752021789551" r="1.0" stroke-width="0" fill="grey"/>
    <circle cx="682.883955001831" cy="68.57393074035645" r="12.0" stroke-width="0" fill="red"/>
    <circle cx="682.883955001831" cy="68.57393074035645" r="1.0" stroke-width="0" fill="grey"/>
    <line x1="462.0" y1="120.0" x2="562.0" y2="120.0" style="stroke:green;stroke-width:3.0"/>
    <line x1="462.0" y1="120.0" x2="462.0" y2="20.0" style="stroke:yellow;stroke-width:3.0"/>
    <circle cx="462.0" cy="120.0" r="1.5" stroke-width="0" fill="red"/>
</svg>
