<?xml version='1.0' encoding='UTF-8'?>
<svg xmlns="http://www.w3.org/2000/svg" version="1.1">
<!--
Rot z: -10.0, rot y: -20.0 of: View of network
[ 0, 0, 285, 155 ]
-->
    <rect x="0.0" y="0.0" width="285.0" height="155.0" style="fill:none;stroke:black;stroke-width:1;"/>
    <line x1="48.249238331649316" y1="81.31169054914224" x2="43.80297646841562" y2="81.31169054914224" style="stroke:rgb(100,100,100);stroke-width:30.0"/>
    <line x1="94.94613936070355" y1="44.2779222119311" x2="90.49987749746985" y2="44.2779222119311" style="stroke:rgb(100,100,100);stroke-width:30.0"/>
    <line x1="133.99518631568463" y1="76.01803269028376" x2="129.54892445245093" y2="76.01803269028376" style="stroke:rgb(100,100,100);stroke-width:30.0"/>
    <line x1="182.51911806983082" y1="102.17301792456588" x2="178.07285620659712" y2="102.17301792456588" style="stroke:rgb(100,100,100);stroke-width:30.0"/>
    <line x1="233.83543923563377" y1="118.5826260141011" x2="229.38917737240013" y2="118.5826260141011" style="stroke:rgb(100,100,100);stroke-width:30.0"/>
    <line x1="50.80384996323596" y1="64.84521039043271" x2="47.38364852997928" y2="64.84521039043271" style="stroke:rgb(100,100,100);stroke-width:24.0"/>
    <line x1="110.43092665051917" y1="58.51614423269607" x2="107.01072521726248" y2="58.51614423269607" style="stroke:rgb(100,100,100);stroke-width:24.0"/>
    <line x1="130.85864558080812" y1="72.67301161616044" x2="127.43844414755145" y2="72.67301161616044" style="stroke:rgb(100,100,100);stroke-width:24.0"/>
    <line x1="184.33495529643437" y1="91.83800306598955" x2="180.91475386317774" y2="91.83800306598955" style="stroke:rgb(100,100,100);stroke-width:24.0"/>
    <line x1="234.37365822402393" y1="91.74343757142074" x2="230.95345679076723" y2="91.74343757142074" style="stroke:rgb(100,100,100);stroke-width:24.0"/>
    <line x1="39.28563907584852" y1="95.92053726987551" x2="252.66356205080262" y2="135.95946497428818" style="stroke:green;stroke-width:1.0"/>
    <line x1="51.86515300369149" y1="20.0" x2="265.2430759786456" y2="60.038927704412664" style="stroke:green;stroke-width:1.0"/>
    <line x1="32.57951392784296" y1="20.0" x2="245.95743690279704" y2="60.038927704412664" style="stroke:green;stroke-width:1.0"/>
    <line x1="20.0" y1="95.92053726987551" x2="233.37792297495412" y2="135.95946497428818" style="stroke:green;stroke-width:1.0"/>
    <line x1="39.28563907584852" y1="95.92053726987551" x2="51.86515300369149" y2="20.0" style="stroke:yellow;stroke-width:1.0"/>
    <line x1="252.66356205080262" y1="135.95946497428818" x2="265.2430759786456" y2="60.038927704412664" style="stroke:yellow;stroke-width:1.0"/>
    <line x1="20.0" y1="95.92053726987551" x2="32.57951392784296" y2="20.0" style="stroke:yellow;stroke-width:1.0"/>
    <line x1="233.37792297495412" y1="135.95946497428818" x2="245.95743690279704" y2="60.038927704412664" style="stroke:yellow;stroke-width:1.0"/>
    <line x1="39.28563907584852" y1="95.92053726987551" x2="20.0" y2="95.92053726987551" style="stroke:red;stroke-width:1.0"/>
    <line x1="252.66356205080262" y1="135.95946497428818" x2="233.37792297495412" y2="135.95946497428818" style="stroke:red;stroke-width:1.0"/>
    <line x1="51.86515300369149" y1="20.0" x2="32.57951392784296" y2="20.0" style="stroke:red;stroke-width:1.0"/>
    <line x1="265.2430759786456" y1="60.038927704412664" x2="245.95743690279704" y2="60.038927704412664" style="stroke:red;stroke-width:1.0"/>
<!--
Rot z: 0.0, rot y: 90.0 of: Rot z: 90.0, rot y: 0.0 of: Rot z: 0.0, rot y: 90.0 of: View of network
[ 0, 155, 265, 140 ]
-->
    <rect x="0.0" y="155.0" width="265.0" height="140.0" style="fill:none;stroke:black;stroke-width:1;"/>
    <line x1="220.57499504089355" y1="242.28256559371948" x2="220.57499504089355" y2="229.28256559371948" style="stroke:rgb(100,100,100);stroke-width:30.0"/>
    <line x1="180.8332405090332" y1="250.0" x2="180.8332405090332" y2="237.0" style="stroke:rgb(100,100,100);stroke-width:30.0"/>
    <line x1="132.31543731689453" y1="244.19045114517212" x2="132.31543731689453" y2="231.19045114517212" style="stroke:rgb(100,100,100);stroke-width:30.0"/>
    <line x1="74.203857421875" y1="236.6125636100769" x2="74.203857421875" y2="223.6125636100769" style="stroke:rgb(100,100,100);stroke-width:30.0"/>
    <line x1="20.0" y1="243.37989091873166" x2="20.0" y2="230.37989091873166" style="stroke:rgb(100,100,100);stroke-width:30.0"/>
    <line x1="219.53684043884277" y1="238.87818384170532" x2="219.53684043884277" y2="228.87818384170532" style="stroke:rgb(100,100,100);stroke-width:24.0"/>
    <line x1="158.42443084716797" y1="239.65477895736694" x2="158.42443084716797" y2="229.65477895736694" style="stroke:rgb(100,100,100);stroke-width:24.0"/>
    <line x1="133.60043334960938" y1="236.98427057266235" x2="133.60043334960938" y2="226.98427057266235" style="stroke:rgb(100,100,100);stroke-width:24.0"/>
    <line x1="74.69793701171875" y1="238.29328680038452" x2="74.69793701171875" y2="228.29328680038452" style="stroke:rgb(100,100,100);stroke-width:24.0"/>
    <line x1="24.6910400390625" y1="245.03852796554563" x2="24.6910400390625" y2="235.03852796554563" style="stroke:rgb(100,100,100);stroke-width:24.0"/>
    <line x1="245.57499504089355" y1="275.0" x2="145.57499504089355" y2="275.0" style="stroke:green;stroke-width:3.0"/>
    <circle cx="245.57499504089355" cy="275.0" r="1.5" stroke-width="0" fill="yellow"/>
    <line x1="245.57499504089355" y1="275.0" x2="245.57499504089355" y2="175.0" style="stroke:red;stroke-width:3.0"/>
<!--
Rot z: 0.0, rot y: 90.0 of: View of network
[ 285, 0, 140, 140 ]
-->
    <rect x="285.0" y="0.0" width="140.0" height="140.0" style="fill:none;stroke:black;stroke-width:1;"/>
    <line x1="337.7174344062805" y1="92.52088356018066" x2="350.7174344062805" y2="92.52088356018066" style="stroke:rgb(100,100,100);stroke-width:30.0"/>
    <line x1="330.0" y1="47.90826606750488" x2="343.0" y2="47.90826606750488" style="stroke:rgb(100,100,100);stroke-width:30.0"/>
    <line x1="335.8095488548279" y1="71.58302116394043" x2="348.8095488548279" y2="71.58302116394043" style="stroke:rgb(100,100,100);stroke-width:30.0"/>
    <line x1="343.3874363899231" y1="87.89484977722168" x2="356.3874363899231" y2="87.89484977722168" style="stroke:rgb(100,100,100);stroke-width:30.0"/>
    <line x1="336.6201090812683" y1="95.0" x2="349.6201090812683" y2="95.0" style="stroke:rgb(100,100,100);stroke-width:30.0"/>
    <line x1="341.1218161582947" y1="75.6173267364502" x2="351.1218161582947" y2="75.6173267364502" style="stroke:rgb(100,100,100);stroke-width:24.0"/>
    <line x1="340.34522104263306" y1="58.41485786437988" x2="350.34522104263306" y2="58.41485786437988" style="stroke:rgb(100,100,100);stroke-width:24.0"/>
    <line x1="343.01572942733765" y1="68.41297721862793" x2="353.01572942733765" y2="68.41297721862793" style="stroke:rgb(100,100,100);stroke-width:24.0"/>
    <line x1="341.7067131996155" y1="77.48752021789551" x2="351.7067131996155" y2="77.48752021789551" style="stroke:rgb(100,100,100);stroke-width:24.0"/>
    <line x1="334.96147203445435" y1="68.57393074035645" x2="344.96147203445435" y2="68.57393074035645" style="stroke:rgb(100,100,100);stroke-width:24.0"/>
    <circle cx="305.0" cy="120.0" r="1.5" stroke-width="0" fill="green"/>
    <line x1="305.0" y1="120.0" x2="305.0" y2="20.0" style="stroke:yellow;stroke-width:3.0"/>
    <line x1="305.0" y1="120.0" x2="405.0" y2="120.0" style="stroke:red;stroke-width:3.0"/>
<!--
Rot z: 0.0, rot y: 0.0 of: View of network
[ 425, 0, 265, 140 ]
-->
    <rect x="425.0" y="0.0" width="265.0" height="140.0" style="fill:none;stroke:black;stroke-width:1;"/>
    <circle cx="470.0" cy="92.52088356018066" r="15.0" stroke-width="0" fill="rgb(100,100,100)"/>
    <circle cx="509.74175453186035" cy="47.90826606750488" r="15.0" stroke-width="0" fill="rgb(100,100,100)"/>
    <circle cx="558.259557723999" cy="71.58302116394043" r="15.0" stroke-width="0" fill="rgb(100,100,100)"/>
    <circle cx="616.3711376190186" cy="87.89484977722168" r="15.0" stroke-width="0" fill="rgb(100,100,100)"/>
    <circle cx="670.5749950408936" cy="95.0" r="15.0" stroke-width="0" fill="rgb(100,100,100)"/>
    <circle cx="471.0381546020508" cy="75.6173267364502" r="12.0" stroke-width="0" fill="rgb(100,100,100)"/>
    <circle cx="532.1505641937256" cy="58.41485786437988" r="12.0" stroke-width="0" fill="rgb(100,100,100)"/>
    <circle cx="556.9745616912842" cy="68.41297721862793" r="12.0" stroke-width="0" fill="rgb(100,100,100)"/>
    <circle cx="615.8770580291748" cy="77.48752021789551" r="12.0" stroke-width="0" fill="rgb(100,100,100)"/>
    <circle cx="665.883955001831" cy="68.57393074035645" r="12.0" stroke-width="0" fill="rgb(100,100,100)"/>
    <line x1="445.0" y1="120.0" x2="545.0" y2="120.0" style="stroke:green;stroke-width:3.0"/>
    <line x1="445.0" y1="120.0" x2="445.0" y2="20.0" style="stroke:yellow;stroke-width:3.0"/>
    <circle cx="445.0" cy="120.0" r="1.5" stroke-width="0" fill="red"/>
</svg>
