<?xml version='1.0' encoding='UTF-8'?>
<svg xmlns="http://www.w3.org/2000/svg" version="1.1">
<!--
Rot z: 0.0, rot y: 90.0 of: Rot z: 90.0, rot y: 0.0 of: Rot z: 0.0, rot y: 90.0 of: Cell: basket_inter_1comp
[ 0, 0, 62, 72 ]
-->
    <rect x="0.0" y="0.0" width="62.0" height="72.0" style="fill:none;stroke:black;stroke-width:1;"/>
    <line x1="20.0" y1="30.0" x2="20.0" y2="20.0" style="stroke:rgb(100,100,100);stroke-width:24.0"/>
    <line x1="42.0" y1="52.0" x2="32.0" y2="52.0" style="stroke:green;stroke-width:1.0"/>
    <circle cx="42.0" cy="52.0" r="0.5" stroke-width="0" fill="yellow"/>
    <line x1="42.0" y1="52.0" x2="42.0" y2="42.0" style="stroke:red;stroke-width:1.0"/>
<!--
Rot z: -10.0, rot y: -20.0 of: Cell: basket_inter_1comp
[ 62, 0, 77, 67 ]
-->
    <rect x="62.0" y="0.0" width="77.0" height="67.0" style="fill:none;stroke:black;stroke-width:1;"/>
    <line x1="102.58755302794302" y1="33.90147116814966" x2="99.16735159468632" y2="33.90147116814966" style="stroke:rgb(100,100,100);stroke-width:24.0"/>
    <line x1="93.62868487307274" y1="43.635386072292995" x2="115.8386827546325" y2="47.802942336299324" style="stroke:green;stroke-width:0.5"/>
    <line x1="97.54490674106957" y1="20.0" x2="119.75490462262934" y2="24.16755626400633" style="stroke:green;stroke-width:0.5"/>
    <line x1="85.91622186799684" y1="20.0" x2="108.1262197495566" y2="24.16755626400633" style="stroke:green;stroke-width:0.5"/>
    <line x1="82.0" y1="43.635386072292995" x2="104.20999788155976" y2="47.802942336299324" style="stroke:green;stroke-width:0.5"/>
    <line x1="93.62868487307274" y1="43.635386072292995" x2="97.54490674106957" y2="20.0" style="stroke:yellow;stroke-width:0.5"/>
    <line x1="115.8386827546325" y1="47.802942336299324" x2="119.75490462262934" y2="24.16755626400633" style="stroke:yellow;stroke-width:0.5"/>
    <line x1="82.0" y1="43.635386072292995" x2="85.91622186799684" y2="20.0" style="stroke:yellow;stroke-width:0.5"/>
    <line x1="104.20999788155976" y1="47.802942336299324" x2="108.1262197495566" y2="24.16755626400633" style="stroke:yellow;stroke-width:0.5"/>
    <line x1="93.62868487307274" y1="43.635386072292995" x2="82.0" y2="43.635386072292995" style="stroke:red;stroke-width:0.5"/>
    <line x1="115.8386827546325" y1="47.802942336299324" x2="104.20999788155976" y2="47.802942336299324" style="stroke:red;stroke-width:0.5"/>
    <line x1="97.54490674106957" y1="20.0" x2="85.91622186799684" y2="20.0" style="stroke:red;stroke-width:0.5"/>
    <line x1="119.75490462262934" y1="24.16755626400633" x2="108.1262197495566" y2="24.16755626400633" style="stroke:red;stroke-width:0.5"/>
<!--
Rot z: 0.0, rot y: 90.0 of: Cell: basket_inter_1comp
[ 62, 67, 72, 62 ]
-->
    <rect x="62.0" y="67.0" width="72.0" height="62.0" style="fill:none;stroke:black;stroke-width:1;"/>
    <line x1="104.0" y1="87.0" x2="114.0" y2="87.0" style="stroke:rgb(100,100,100);stroke-width:24.0"/>
    <circle cx="82.0" cy="109.0" r="0.5" stroke-width="0" fill="green"/>
    <line x1="82.0" y1="109.0" x2="82.0" y2="99.0" style="stroke:yellow;stroke-width:1.0"/>
    <line x1="82.0" y1="109.0" x2="92.0" y2="109.0" style="stroke:red;stroke-width:1.0"/>
<!--
Rot z: 0.0, rot y: 0.0 of: Cell: basket_inter_1comp
[ 0, 72, 62, 62 ]
-->
    <rect x="0.0" y="72.0" width="62.0" height="62.0" style="fill:none;stroke:black;stroke-width:1;"/>
    <circle cx="42.0" cy="92.0" r="12.0" stroke-width="0" fill="rgb(100,100,100)"/>
    <line x1="20.0" y1="114.0" x2="30.0" y2="114.0" style="stroke:green;stroke-width:1.0"/>
    <line x1="20.0" y1="114.0" x2="20.0" y2="104.0" style="stroke:yellow;stroke-width:1.0"/>
    <circle cx="20.0" cy="114.0" r="0.5" stroke-width="0" fill="red"/>
</svg>
