<?xml version='1.0' encoding='UTF-8'?>
<svg xmlns="http://www.w3.org/2000/svg" version="1.1">
<!--
Rot z: 0.0, rot y: 90.0 of: Rot z: 90.0, rot y: 0.0 of: Rot z: 0.0, rot y: 90.0 of: Cell: basket_inter
[ 0, 0, 62, 128 ]
-->
    <rect x="0.0" y="0.0" width="62.0" height="128.0" style="fill:none;stroke:black;stroke-width:1;"/>
    <line x1="20.0" y1="86.0" x2="20.0" y2="76.0" style="stroke:rgb(100,100,100);stroke-width:24.0"/>
    <line x1="20.0" y1="76.0" x2="20.000000000000004" y2="20.0" style="stroke:rgb(100,100,100);stroke-width:2.0"/>
    <line x1="42.0" y1="108.0" x2="32.0" y2="108.0" style="stroke:green;stroke-width:1.0"/>
    <circle cx="42.0" cy="108.0" r="0.5" stroke-width="0" fill="yellow"/>
    <line x1="42.0" y1="108.0" x2="42.0" y2="98.0" style="stroke:red;stroke-width:1.0"/>
<!--
Rot z: -10.0, rot y: -20.0 of: Cell: basket_inter
[ 62, 0, 93, 67 ]
-->
    <rect x="62.0" y="0.0" width="93.0" height="67.0" style="fill:none;stroke:black;stroke-width:1;"/>
    <line x1="117.97845947759811" y1="33.90147116814966" x2="114.55825804434141" y2="33.90147116814966" style="stroke:rgb(100,100,100);stroke-width:24.0"/>
    <line x1="114.55825804434141" y1="33.90147116814966" x2="95.40513001810396" y2="33.90147116814966" style="stroke:rgb(100,100,100);stroke-width:2.0"/>
    <line x1="109.01959132272783" y1="43.635386072292995" x2="131.2295892042876" y2="47.802942336299324" style="stroke:green;stroke-width:0.5"/>
    <line x1="112.93581319072466" y1="20.0" x2="135.14581107228443" y2="24.16755626400633" style="stroke:green;stroke-width:0.5"/>
    <line x1="85.91622186799684" y1="20.0" x2="108.1262197495566" y2="24.16755626400633" style="stroke:green;stroke-width:0.5"/>
    <line x1="82.0" y1="43.635386072292995" x2="104.20999788155976" y2="47.802942336299324" style="stroke:green;stroke-width:0.5"/>
    <line x1="109.01959132272783" y1="43.635386072292995" x2="112.93581319072466" y2="20.0" style="stroke:yellow;stroke-width:0.5"/>
    <line x1="131.2295892042876" y1="47.802942336299324" x2="135.14581107228443" y2="24.16755626400633" style="stroke:yellow;stroke-width:0.5"/>
    <line x1="82.0" y1="43.635386072292995" x2="85.91622186799684" y2="20.0" style="stroke:yellow;stroke-width:0.5"/>
    <line x1="104.20999788155976" y1="47.802942336299324" x2="108.1262197495566" y2="24.16755626400633" style="stroke:yellow;stroke-width:0.5"/>
    <line x1="109.01959132272783" y1="43.635386072292995" x2="82.0" y2="43.635386072292995" style="stroke:red;stroke-width:0.5"/>
    <line x1="131.2295892042876" y1="47.802942336299324" x2="104.20999788155976" y2="47.802942336299324" style="stroke:red;stroke-width:0.5"/>
    <line x1="112.93581319072466" y1="20.0" x2="85.91622186799684" y2="20.0" style="stroke:red;stroke-width:0.5"/>
    <line x1="135.14581107228443" y1="24.16755626400633" x2="108.1262197495566" y2="24.16755626400633" style="stroke:red;stroke-width:0.5"/>
<!--
Rot z: 0.0, rot y: 90.0 of: Cell: basket_inter
[ 62, 67, 128, 62 ]
-->
    <rect x="62.0" y="67.0" width="128.0" height="62.0" style="fill:none;stroke:black;stroke-width:1;"/>
    <line x1="104.0" y1="87.0" x2="114.0" y2="87.0" style="stroke:rgb(100,100,100);stroke-width:24.0"/>
    <line x1="114.0" y1="87.0" x2="170.0" y2="87.0" style="stroke:rgb(100,100,100);stroke-width:2.0"/>
    <circle cx="82.0" cy="109.0" r="0.5" stroke-width="0" fill="green"/>
    <line x1="82.0" y1="109.0" x2="82.0" y2="99.0" style="stroke:yellow;stroke-width:1.0"/>
    <line x1="82.0" y1="109.0" x2="92.0" y2="109.0" style="stroke:red;stroke-width:1.0"/>
<!--
Rot z: 0.0, rot y: 0.0 of: Cell: basket_inter
[ 0, 128, 62, 62 ]
-->
    <rect x="0.0" y="128.0" width="62.0" height="62.0" style="fill:none;stroke:black;stroke-width:1;"/>
    <circle cx="42.0" cy="148.0" r="12.0" stroke-width="0" fill="rgb(100,100,100)"/>
    <circle cx="42.0" cy="148.0" r="1.0" stroke-width="0" fill="rgb(100,100,100)"/>
    <line x1="20.0" y1="170.0" x2="30.0" y2="170.0" style="stroke:green;stroke-width:1.0"/>
    <line x1="20.0" y1="170.0" x2="20.0" y2="160.0" style="stroke:yellow;stroke-width:1.0"/>
    <circle cx="20.0" cy="170.0" r="0.5" stroke-width="0" fill="red"/>
</svg>
