<?xml version='1.0' encoding='UTF-8'?>
<svg xmlns="http://www.w3.org/2000/svg" version="1.1">
<!--
Rot z: 0.0, rot y: 90.0 of: Rot z: 90.0, rot y: 0.0 of: Rot z: 0.0, rot y: 90.0 of: Cell: pyr_23layer_1comp
[ 0, 0, 65, 78 ]
-->
    <rect x="0.0" y="0.0" width="65.0" height="78.0" style="fill:none;stroke:black;stroke-width:1;"/>
    <line x1="20.0" y1="33.0" x2="20.0" y2="20.0" style="stroke:rgb(100,100,100);stroke-width:30.0"/>
    <line x1="45.0" y1="58.0" x2="35.0" y2="58.0" style="stroke:green;stroke-width:1.0"/>
    <circle cx="45.0" cy="58.0" r="0.5" stroke-width="0" fill="yellow"/>
    <line x1="45.0" y1="58.0" x2="45.0" y2="48.0" style="stroke:red;stroke-width:1.0"/>
<!--
Rot z: -10.0, rot y: -20.0 of: Cell: pyr_23layer_1comp
[ 65, 0, 87, 74 ]
-->
    <rect x="65.0" y="0.0" width="87.0" height="74.0" style="fill:none;stroke:black;stroke-width:1;"/>
    <line x1="110.90545135659158" y1="37.37683896018707" x2="106.45918949335791" y2="37.37683896018707" style="stroke:rgb(100,100,100);stroke-width:30.0"/>
    <line x1="99.70686616300375" y1="49.544232590366235" x2="127.46936351495347" y2="54.753677920374145" style="stroke:green;stroke-width:0.5"/>
    <line x1="104.6021434979998" y1="20.0" x2="132.3646408499495" y2="25.20944533000791" style="stroke:green;stroke-width:0.5"/>
    <line x1="89.89527733499605" y1="20.0" x2="117.65777468694574" y2="25.20944533000791" style="stroke:green;stroke-width:0.5"/>
    <line x1="85.0" y1="49.544232590366235" x2="112.76249735194969" y2="54.753677920374145" style="stroke:green;stroke-width:0.5"/>
    <line x1="99.70686616300375" y1="49.544232590366235" x2="104.6021434979998" y2="20.0" style="stroke:yellow;stroke-width:0.5"/>
    <line x1="127.46936351495347" y1="54.753677920374145" x2="132.3646408499495" y2="25.20944533000791" style="stroke:yellow;stroke-width:0.5"/>
    <line x1="85.0" y1="49.544232590366235" x2="89.89527733499605" y2="20.0" style="stroke:yellow;stroke-width:0.5"/>
    <line x1="112.76249735194969" y1="54.753677920374145" x2="117.65777468694574" y2="25.20944533000791" style="stroke:yellow;stroke-width:0.5"/>
    <line x1="99.70686616300375" y1="49.544232590366235" x2="85.0" y2="49.544232590366235" style="stroke:red;stroke-width:0.5"/>
    <line x1="127.46936351495347" y1="54.753677920374145" x2="112.76249735194969" y2="54.753677920374145" style="stroke:red;stroke-width:0.5"/>
    <line x1="104.6021434979998" y1="20.0" x2="89.89527733499605" y2="20.0" style="stroke:red;stroke-width:0.5"/>
    <line x1="132.3646408499495" y1="25.20944533000791" x2="117.65777468694574" y2="25.20944533000791" style="stroke:red;stroke-width:0.5"/>
<!--
Rot z: 0.0, rot y: 90.0 of: Cell: pyr_23layer_1comp
[ 65, 74, 78, 65 ]
-->
    <rect x="65.0" y="74.0" width="78.0" height="65.0" style="fill:none;stroke:black;stroke-width:1;"/>
    <line x1="110.0" y1="94.0" x2="123.0" y2="94.0" style="stroke:rgb(100,100,100);stroke-width:30.0"/>
    <circle cx="85.0" cy="119.0" r="0.5" stroke-width="0" fill="green"/>
    <line x1="85.0" y1="119.0" x2="85.0" y2="109.0" style="stroke:yellow;stroke-width:1.0"/>
    <line x1="85.0" y1="119.0" x2="95.0" y2="119.0" style="stroke:red;stroke-width:1.0"/>
<!--
Rot z: 0.0, rot y: 0.0 of: Cell: pyr_23layer_1comp
[ 0, 78, 65, 65 ]
-->
    <rect x="0.0" y="78.0" width="65.0" height="65.0" style="fill:none;stroke:black;stroke-width:1;"/>
    <circle cx="45.0" cy="98.0" r="15.0" stroke-width="0" fill="rgb(100,100,100)"/>
    <line x1="20.0" y1="123.0" x2="30.0" y2="123.0" style="stroke:green;stroke-width:1.0"/>
    <line x1="20.0" y1="123.0" x2="20.0" y2="113.0" style="stroke:yellow;stroke-width:1.0"/>
    <circle cx="20.0" cy="123.0" r="0.5" stroke-width="0" fill="red"/>
</svg>
